<svg xmlns="http://www.w3.org/2000/svg" xmlns:xlink="http://www.w3.org/1999/xlink" width="26" height="26" viewBox="0 0 26 26"><defs><linearGradient id="b" x1="1073.403" x2="1097.116" y1="516.451" y2="544.308" gradientTransform="translate(-834.007 625.151) scale(.78112)" gradientUnits="userSpaceOnUse" xlink:href="#a"/><linearGradient id="a"><stop offset="0" stop-color="#16ff6a"/><stop offset="1" stop-color="#0090a5"/></linearGradient></defs><g transform="translate(-1.03 -1096.225) scale(1.06642)"><rect width="24.381" height="24.381" x=".965" y="1027.95" fill="url(#b)" rx="5.152" ry="5.152"/><path fill="#fff" d="m 16.694132,1034.5147 a 0.46890596,0.46890596 0 0 0 -0.362633,0.1593 l -4.129989,4.7435 -2.2142602,-2.6703 a 0.46890596,0.46890596 0 0 0 -0.7032886,-0.02 l -2.5659044,2.749 a 0.46890596,0.46890596 0 0 0 0,0.6392 l 2.5659044,2.7527 2.5659048,2.7491 a 0.46890596,0.46890596 0 0 0 0.686805,0 l 2.565904,-2.7491 4.49079,-4.8149 a 0.46890596,0.46890596 0 0 0 0,-0.6392 l -2.567735,-2.7509 a 0.46890596,0.46890596 0 0 0 -0.331498,-0.1483 z m 0.0019,1.1721 1.913896,2.0458 -4.192259,4.4944 -2.225249,2.3846 -2.2215855,-2.3846 -2.2692045,-2.4285 1.9047399,-2.0421 2.2270801,2.6831 a 0.46890596,0.46890596 0 0 0 0.712446,0.011 l 4.150092,-4.7637 z" color="#000" font-family="sans-serif" font-weight="400" overflow="visible" style="line-height:normal;text-indent:0;text-align:start;text-decoration-line:none;text-decoration-style:solid;text-decoration-color:#000;text-transform:none;block-progression:tb;isolation:auto;mix-blend-mode:normal"/></g></svg>