<svg xmlns="http://www.w3.org/2000/svg" viewBox="0 0 24 24"><path fill="#333" d="M20 24H10c-1.103 0-2-.897-2-2V2c0-1.103.897-2 2-2h10c1.103 0 2 .897 2 2v20c0 1.103-.897 2-2 2z"/><path fill="#4E4E4E" d="M10 1c-.552 0-1 .449-1 1v20c0 .551.448 1 1 1h10c.552 0 1-.449 1-1V2c0-.551-.448-1-1-1H10z"/><path fill="#333" d="M14 24H4c-1.103 0-2-.897-2-2V2c0-1.103.897-2 2-2h10c1.103 0 2 .897 2 2v20c0 1.103-.897 2-2 2z"/><path fill="#4E4E4E" d="M14 1h-1.592a.494.494 0 0 0-.465.334A1.002 1.002 0 0 1 11 2H7c-.435 0-.805-.278-.943-.666A.494.494 0 0 0 5.592 1H4c-.552 0-1 .449-1 1v20c0 .551.448 1 1 1h10c.552 0 1-.449 1-1V2c0-.551-.448-1-1-1z"/><linearGradient id="a" x1=".157" x2="17.843" y1="7.876" y2="16.124" gradientUnits="userSpaceOnUse"><stop offset="0" stop-color="#FFF" stop-opacity=".2"/><stop offset="1" stop-color="#FFF" stop-opacity="0"/></linearGradient><path fill="url(#a)" d="M14 1h-1.592a.494.494 0 0 0-.465.334A1.002 1.002 0 0 1 11 2H7c-.435 0-.805-.278-.943-.666A.494.494 0 0 0 5.592 1H4c-.552 0-1 .449-1 1v20c0 .551.448 1 1 1h10c.552 0 1-.449 1-1V2c0-.551-.448-1-1-1z"/><path fill="#333" d="M19 2c-.552 0-1 .449-1 1v2a1 1 0 0 0 2 0V3c0-.551-.448-1-1-1z"/><circle cx="19" cy="3" r=".5" fill="#2D98D4" opacity=".25"/><radialGradient id="b" cx="18.763" cy="2.759" r=".678" gradientUnits="userSpaceOnUse"><stop offset="0" stop-color="#FFF"/><stop offset="1" stop-color="#FFF" stop-opacity="0"/></radialGradient><circle cx="19" cy="3" r=".25" fill="url(#b)" fill-opacity=".08"/><circle cx="19" cy="4" r=".25" fill="#D8DCDB"/><circle cx="19" cy="5" r=".5" fill="#2D98D4" opacity=".25"/><radialGradient id="c" cx="18.763" cy="4.759" r=".678" gradientUnits="userSpaceOnUse"><stop offset="0" stop-color="#FFF"/><stop offset="1" stop-color="#FFF" stop-opacity="0"/></radialGradient><circle cx="19" cy="5" r=".25" fill="url(#c)" fill-opacity=".08"/><linearGradient id="d" x1="10.014" x2="21.424" y1="7.511" y2="18.921" gradientUnits="userSpaceOnUse"><stop offset="0" stop-color="#010101" stop-opacity=".1"/><stop offset="1" stop-color="#010101" stop-opacity="0"/></linearGradient><path fill="url(#d)" d="M15.415.588C15.776.95 16 1.449 16 2v20a1.996 1.996 0 0 1-1.82 1.982V24H20c1.103 0 2-.897 2-2V7.173L15.415.588z"/><linearGradient id="e" x1="-.214" x2="24.214" y1="6.305" y2="17.695" gradientUnits="userSpaceOnUse"><stop offset="0" stop-color="#FFF" stop-opacity=".2"/><stop offset="1" stop-color="#FFF" stop-opacity="0"/></linearGradient><path fill="url(#e)" d="M20 0H4C2.897 0 2 .897 2 2v20c0 1.103.897 2 2 2h16c1.103 0 2-.897 2-2V2c0-1.103-.897-2-2-2z"/></svg>